# File created by Blade
# Date/Time:  Wed Jan 21 14:55:15 2015
# Frame Rate: 120.000 fps
#------------------------------------------------------
:FULLY-SPECIFIED
:DEGREES
558
root 19.757355 17.167212 -19.886039 -95.716475 81.419746 -124.520978
Spine 25.289226 -4.725019 7.896660
Head -14.454481 -3.100145 0.312872
LeftShoulder -19.220595 -43.408391 26.813408
LeftArm -28.009036 -1.113843 -11.265227
LeftForeArm -5.122781 -0.000000 1.398012
LeftHand -13.751397 -0.000000 2.220525
LeftHandThumb1 -26.253704 0.000000 33.147579
RightShoulder -11.737371 5.366294 -18.072545
RightArm -20.839721 42.261670 16.714668
RightForeArm -30.975779 -0.000000 11.757608
RightHand -15.085120 -0.000000 -3.070814
RightHandThumb1 -24.326973 -0.000000 -32.862282
LeftUpLeg 0.699263 14.145620 5.138631
LeftLeg 72.549679 -0.000000 -0.000000
LeftFoot -20.325321 16.363494 -13.465502
LeftToeBase -69.852945 -0.000000 0.000000
RightUpLeg -116.876277 15.846267 7.727094
RightLeg 111.927178 -0.000000 -0.000000
RightFoot -41.899689 -25.709408 14.447329
RightToeBase 23.403072 -0.000000 -0.000000
559
root 19.762298 17.169020 -19.894215 -95.631622 81.389206 -124.513407
Spine 25.586832 -4.712665 7.909594
Head -14.309296 -3.082770 0.326045
LeftShoulder -19.125243 -43.406416 26.808773
LeftArm -28.107966 -1.282225 -11.301742
LeftForeArm -4.969929 -0.000000 1.408287
LeftHand -13.695768 -0.000000 2.265580
LeftHandThumb1 -26.253704 0.000000 33.147579
RightShoulder -11.705910 5.248799 -18.026450
RightArm -20.712604 42.266917 16.804489
RightForeArm -30.902730 0.000000 11.729106
RightHand -15.074146 -0.000000 -3.177692
RightHandThumb1 -24.326973 -0.000000 -32.862282
LeftUpLeg 0.634436 14.131686 5.127654
LeftLeg 72.527600 -0.000000 -0.000000
LeftFoot -20.320847 16.329413 -13.491350
LeftToeBase -69.901980 -0.000000 0.000000
RightUpLeg -116.939410 15.848700 7.716536
RightLeg 111.934084 -0.000000 -0.000000
RightFoot -41.917506 -25.706464 14.454555
RightToeBase 23.426767 -0.000000 -0.000000
560
root 19.764943 17.171462 -19.902945 -95.435881 81.354770 -124.412989
Spine 25.868838 -4.726691 7.928838
Head -14.183054 -3.089692 0.288887
LeftShoulder -19.102026 -43.369980 26.745077
LeftArm -28.061975 -1.184570 -11.424956
LeftForeArm -5.100001 -0.000000 1.331390
LeftHand -13.600412 0.000000 2.333931
LeftHandThumb1 -26.253704 0.000000 33.147579
RightShoulder -11.636874 5.248049 -18.023033
RightArm -20.674189 42.220601 16.841344
RightForeArm -30.907323 -0.000000 11.773066
RightHand -15.119928 -0.000000 -3.195278
RightHandThumb1 -24.326973 -0.000000 -32.862282
LeftUpLeg 0.548192 14.132662 5.114553
LeftLeg 72.507112 -0.000000 -0.000000
LeftFoot -20.305498 16.320535 -13.482954
LeftToeBase -69.879353 -0.000000 0.000000
RightUpLeg -117.013833 15.868584 7.706951
RightLeg 111.928649 -0.000000 -0.000000
RightFoot -41.911710 -25.735384 14.436084
RightToeBase 23.321999 -0.000000 -0.000000
561
root 19.770549 17.171760 -19.908367 -95.312859 81.301961 -124.335949
Spine 26.200463 -4.718509 7.942747
Head -14.059746 -3.093184 0.383183
LeftShoulder -19.036688 -43.310549 26.756122
LeftArm -28.137181 -1.278476 -11.522728
LeftForeArm -5.089807 -0.000000 1.385380
LeftHand -13.605983 -0.000000 2.371771
LeftHandThumb1 -26.253704 0.000000 33.147579
RightShoulder -11.562726 5.117821 -17.941883
RightArm -20.614668 42.354589 16.835064
RightForeArm -30.955902 -0.000000 11.750053
RightHand -15.044747 -0.000000 -3.263566
RightHandThumb1 -24.326973 -0.000000 -32.862282
LeftUpLeg 0.522286 14.134451 5.154394
LeftLeg 72.487314 -0.000000 -0.000000
LeftFoot -20.300265 16.269309 -13.497187
LeftToeBase -70.259628 -0.000000 0.000000
RightUpLeg -117.042881 15.887617 7.708406
RightLeg 111.921726 -0.000000 -0.000000
RightFoot -41.961878 -25.816272 14.413350
RightToeBase 23.952061 -0.000000 -0.000000
562
root 19.775033 17.173715 -19.917902 -95.321560 81.275171 -124.422530
Spine 26.487791 -4.737907 7.960928
Head -13.943401 -3.138318 0.372471
LeftShoulder -18.960705 -43.298285 26.680515
LeftArm -28.145244 -1.377991 -11.532535
LeftForeArm -4.985692 0.000000 1.359672
LeftHand -13.533792 -0.000000 2.388991
LeftHandThumb1 -26.253704 0.000000 33.147579
RightShoulder -11.524069 5.059932 -17.944442
RightArm -20.540329 42.315765 16.928527
RightForeArm -30.884535 -0.000000 11.784691
RightHand -15.107199 -0.000000 -3.385636
RightHandThumb1 -24.326973 -0.000000 -32.862282
LeftUpLeg 0.455614 14.100061 5.131345
LeftLeg 72.462053 -0.000000 -0.000000
LeftFoot -20.309890 16.243643 -13.504548
LeftToeBase -70.207960 -0.000000 0.000000
RightUpLeg -117.120117 15.882947 7.687791
RightLeg 111.945556 -0.000000 -0.000000
RightFoot -41.925220 -25.733787 14.574555
RightToeBase 23.612183 -0.000000 -0.000000
563
root 19.782936 17.174339 -19.925549 -95.416711 81.231460 -124.568895
Spine 26.800550 -4.763066 7.986190
Head -13.834437 -3.135476 0.381452
LeftShoulder -18.893972 -43.219861 26.600609
LeftArm -28.146211 -1.308091 -11.671720
LeftForeArm -5.166405 -0.000000 1.423391
LeftHand -13.600904 -0.000000 2.385463
LeftHandThumb1 -26.253704 0.000000 33.147579
RightShoulder -11.465130 4.969616 -17.897596
RightArm -20.473947 42.320490 16.962840
RightForeArm -30.778944 -0.000000 11.727376
RightHand -14.978969 -0.000000 -3.565650
RightHandThumb1 -24.326973 -0.000000 -32.862282
LeftUpLeg 0.425065 14.060468 5.145919
LeftLeg 72.435615 -0.000000 -0.000000
LeftFoot -20.304391 16.206166 -13.496203
LeftToeBase -70.088592 -0.000000 0.000000
RightUpLeg -117.161471 15.872516 7.700188
RightLeg 111.968198 -0.000000 -0.000000
RightFoot -41.938763 -25.805700 14.433016
RightToeBase 23.190917 -0.000000 -0.000000
564
root 19.792289 17.174969 -19.930914 -95.543227 81.186415 -124.727627
Spine 27.147395 -4.803381 7.995616
Head -13.747983 -3.062899 0.353516
LeftShoulder -18.953568 -43.266068 26.652267
LeftArm -28.101549 -1.343984 -11.737535
LeftForeArm -5.061201 -0.000000 1.375599
LeftHand -13.516903 -0.000000 2.476866
LeftHandThumb1 -26.253704 0.000000 33.147579
RightShoulder -11.426623 4.917515 -17.865330
RightArm -20.433183 42.407843 17.002210
RightForeArm -30.780470 -0.000000 11.769056
RightHand -14.973696 -0.000000 -3.652030
RightHandThumb1 -24.326973 -0.000000 -32.862282
LeftUpLeg 0.418606 14.011945 5.173789
LeftLeg 72.428675 -0.000000 -0.000000
LeftFoot -20.313299 16.040192 -13.515243
LeftToeBase -69.688626 -0.000000 0.000000
RightUpLeg -117.180500 15.869135 7.710285
RightLeg 111.975374 -0.000000 -0.000000
RightFoot -41.966904 -25.848542 14.557896
RightToeBase 23.557498 -0.000000 -0.000000
